<svg xmlns="http://www.w3.org/2000/svg" viewBox="0 0 1387 338" width="1387" height="338">
  <path d="M69.20 107.20L50 107.20L50 64.96L69.20 64.96L69.20 107.20ZM88.40 107.20L69.20 107.20L69.20 64.96L88.40 64.96L88.40 107.20ZM102.80 110.40L99.60 110.40L99.60 84.16L87.76 84.16L87.76 80.96L102.80 80.96L102.80 110.40ZM96.40 110.40L93.20 110.40L93.20 90.56L87.76 90.56L87.76 87.36L96.40 87.36L96.40 110.40ZM184.40 107.20L165.20 107.20L165.20 64.96L184.40 64.96L184.40 107.20ZM203.60 107.20L184.40 107.20L184.40 64.96L203.60 64.96L203.60 107.20ZM218.00 110.40L214.80 110.40L214.80 84.16L202.96 84.16L202.96 80.96L218.00 80.96L218.00 110.40ZM211.60 110.40L208.40 110.40L208.40 90.56L202.96 90.56L202.96 87.36L211.60 87.36L211.60 110.40ZM242.00 107.20L222.80 107.20L222.80 64.96L242.00 64.96L242.00 107.20ZM261.20 107.20L242.00 107.20L242.00 64.96L261.20 64.96L261.20 107.20ZM280.40 107.20L261.20 107.20L261.20 64.96L280.40 64.96L280.40 107.20ZM299.60 107.20L280.40 107.20L280.40 64.96L299.60 64.96L299.60 107.20ZM318.80 107.20L299.60 107.20L299.60 64.96L318.80 64.96L318.80 107.20ZM338.00 107.20L318.80 107.20L318.80 64.96L338.00 64.96L338.00 107.20ZM357.20 107.20L338.00 107.20L338.00 64.96L357.20 64.96L357.20 107.20ZM371.60 110.40L368.40 110.40L368.40 84.16L356.56 84.16L356.56 80.96L371.60 80.96L371.60 110.40ZM365.20 110.40L362.00 110.40L362.00 90.56L356.56 90.56L356.56 87.36L365.20 87.36L365.20 110.40ZM395.60 107.20L376.40 107.20L376.40 64.96L395.60 64.96L395.60 107.20ZM414.80 107.20L395.60 107.20L395.60 64.96L414.80 64.96L414.80 107.20ZM434.00 107.20L414.80 107.20L414.80 64.96L434.00 64.96L434.00 107.20ZM453.20 107.20L434.00 107.20L434.00 64.96L453.20 64.96L453.20 107.20ZM472.40 107.20L453.20 107.20L453.20 64.96L472.40 64.96L472.40 107.20ZM491.60 107.20L472.40 107.20L472.40 64.96L491.60 64.96L491.60 107.20ZM506.00 110.40L502.80 110.40L502.80 84.16L490.96 84.16L490.96 80.96L506.00 80.96L506.00 110.40ZM499.60 110.40L496.40 110.40L496.40 90.56L490.96 90.56L490.96 87.36L499.60 87.36L499.60 110.40ZM549.20 107.20L530.00 107.20L530.00 64.96L549.20 64.96L549.20 107.20ZM568.40 107.20L549.20 107.20L549.20 64.96L568.40 64.96L568.40 107.20ZM587.60 107.20L568.40 107.20L568.40 64.96L587.60 64.96L587.60 107.20ZM606.80 107.20L587.60 107.20L587.60 64.96L606.80 64.96L606.80 107.20ZM626 107.20L606.80 107.20L606.80 64.96L626 64.96L626 107.20ZM645.20 107.20L626 107.20L626 64.96L645.20 64.96L645.20 107.20ZM664.40 107.20L645.20 107.20L645.20 64.96L664.40 64.96L664.40 107.20ZM683.60 107.20L664.40 107.20L664.40 64.96L683.60 64.96L683.60 107.20ZM698.00 110.40L694.80 110.40L694.80 84.16L682.96 84.16L682.96 80.96L698.00 80.96L698.00 110.40ZM691.60 110.40L688.40 110.40L688.40 90.56L682.96 90.56L682.96 87.36L691.60 87.36L691.60 110.40ZM741.20 107.20L722.00 107.20L722.00 64.96L741.20 64.96L741.20 107.20ZM760.40 107.20L741.20 107.20L741.20 64.96L760.40 64.96L760.40 107.20ZM779.60 107.20L760.40 107.20L760.40 64.96L779.60 64.96L779.60 107.20ZM798.80 107.20L779.60 107.20L779.60 64.96L798.80 64.96L798.80 107.20ZM818.00 107.20L798.80 107.20L798.80 64.96L818.00 64.96L818.00 107.20ZM832.40 110.40L829.20 110.40L829.20 84.16L817.36 84.16L817.36 80.96L832.40 80.96L832.40 110.40ZM826.00 110.40L822.80 110.40L822.80 90.56L817.36 90.56L817.36 87.36L826.00 87.36L826.00 110.40ZM894.80 107.20L875.60 107.20L875.60 64.96L894.80 64.96L894.80 107.20ZM914.00 107.20L894.80 107.20L894.80 64.96L914.00 64.96L914.00 107.20ZM933.20 107.20L914.00 107.20L914.00 64.96L933.20 64.96L933.20 107.20ZM952.40 107.20L933.20 107.20L933.20 64.96L952.40 64.96L952.40 107.20ZM971.60 107.20L952.40 107.20L952.40 64.96L971.60 64.96L971.60 107.20ZM986.00 110.40L982.80 110.40L982.80 84.16L970.96 84.16L970.96 80.96L986.00 80.96L986.00 110.40ZM979.60 110.40L976.40 110.40L976.40 90.56L970.96 90.56L970.96 87.36L979.60 87.36L979.60 110.40ZM1029.20 107.20L1010.00 107.20L1010.00 64.96L1029.20 64.96L1029.20 107.20ZM1048.40 107.20L1029.20 107.20L1029.20 64.96L1048.40 64.96L1048.40 107.20ZM1062.80 110.40L1059.60 110.40L1059.60 84.16L1047.76 84.16L1047.76 80.96L1062.80 80.96L1062.80 110.40ZM1056.40 110.40L1053.20 110.40L1053.20 90.56L1047.76 90.56L1047.76 87.36L1056.40 87.36L1056.40 110.40ZM1144.40 107.20L1125.20 107.20L1125.20 64.96L1144.40 64.96L1144.40 107.20ZM1163.60 107.20L1144.40 107.20L1144.40 64.96L1163.60 64.96L1163.60 107.20ZM1178.00 110.40L1174.80 110.40L1174.80 84.16L1162.96 84.16L1162.96 80.96L1178.00 80.96L1178.00 110.40ZM1171.60 110.40L1168.40 110.40L1168.40 90.56L1162.96 90.56L1162.96 87.36L1171.60 87.36L1171.60 110.40ZM1202.00 107.20L1182.80 107.20L1182.80 64.96L1202.00 64.96L1202.00 107.20ZM1221.20 107.20L1202.00 107.20L1202.00 64.96L1221.20 64.96L1221.20 107.20ZM1235.60 110.40L1232.40 110.40L1232.40 84.16L1220.56 84.16L1220.56 80.96L1235.60 80.96L1235.60 110.40ZM1229.20 110.40L1226.00 110.40L1226.00 90.56L1220.56 90.56L1220.56 87.36L1229.20 87.36L1229.20 110.40ZM1298.00 107.20L1278.80 107.20L1278.80 64.96L1298.00 64.96L1298.00 107.20ZM1317.20 107.20L1298.00 107.20L1298.00 64.96L1317.20 64.96L1317.20 107.20ZM1331.60 110.40L1328.40 110.40L1328.40 84.16L1316.56 84.16L1316.56 80.96L1331.60 80.96L1331.60 110.40ZM1325.20 110.40L1322.00 110.40L1322.00 90.56L1316.56 90.56L1316.56 87.36L1325.20 87.36L1325.20 110.40Z M69.20 144.00L50 144.00L50 101.76L69.20 101.76L69.20 144.00ZM88.40 144.00L69.20 144.00L69.20 101.76L88.40 101.76L88.40 144.00ZM102.80 147.20L99.60 147.20L99.60 98.56L102.80 98.56L102.80 147.20ZM96.40 147.20L93.20 147.20L93.20 98.56L96.40 98.56L96.40 147.20ZM184.40 144.00L165.20 144.00L165.20 101.76L184.40 101.76L184.40 144.00ZM203.60 144.00L184.40 144.00L184.40 101.76L203.60 101.76L203.60 144.00ZM218.00 147.20L214.80 147.20L214.80 98.56L218.00 98.56L218.00 147.20ZM211.60 147.20L208.40 147.20L208.40 98.56L211.60 98.56L211.60 147.20ZM242.00 144.00L222.80 144.00L222.80 101.76L242.00 101.76L242.00 144.00ZM261.20 144.00L242.00 144.00L242.00 101.76L261.20 101.76L261.20 144.00ZM269.20 147.20L266.00 147.20L266.00 117.76L281.04 117.76L281.04 120.96L269.20 120.96L269.20 147.20ZM275.60 147.20L272.40 147.20L272.40 124.16L281.04 124.16L281.04 127.36L275.60 127.36L275.60 147.20ZM300.24 120.96L279.76 120.96L279.76 117.76L300.24 117.76L300.24 120.96ZM300.24 127.36L279.76 127.36L279.76 124.16L300.24 124.16L300.24 127.36ZM319.44 120.96L298.96 120.96L298.96 117.76L319.44 117.76L319.44 120.96ZM319.44 127.36L298.96 127.36L298.96 124.16L319.44 124.16L319.44 127.36ZM338.64 120.96L318.16 120.96L318.16 117.76L338.64 117.76L338.64 120.96ZM338.64 127.36L318.16 127.36L318.16 124.16L338.64 124.16L338.64 127.36ZM357.84 120.96L337.36 120.96L337.36 117.76L357.84 117.76L357.84 120.96ZM357.84 127.36L337.36 127.36L337.36 124.16L357.84 124.16L357.84 127.36ZM371.60 127.36L356.56 127.36L356.56 124.16L368.40 124.16L368.40 98.56L371.60 98.56L371.60 127.36ZM365.20 120.96L356.56 120.96L356.56 117.76L362.00 117.76L362.00 98.56L365.20 98.56L365.20 120.96ZM395.60 144.00L376.40 144.00L376.40 101.76L395.60 101.76L395.60 144.00ZM414.80 144.00L395.60 144.00L395.60 101.76L414.80 101.76L414.80 144.00ZM422.80 147.20L419.60 147.20L419.60 117.76L434.64 117.76L434.64 120.96L422.80 120.96L422.80 147.20ZM429.20 147.20L426.00 147.20L426.00 124.16L434.64 124.16L434.64 127.36L429.20 127.36L429.20 147.20ZM453.84 120.96L433.36 120.96L433.36 117.76L453.84 117.76L453.84 120.96ZM453.84 127.36L433.36 127.36L433.36 124.16L453.84 124.16L453.84 127.36ZM473.04 120.96L452.56 120.96L452.56 117.76L473.04 117.76L473.04 120.96ZM473.04 127.36L452.56 127.36L452.56 124.16L473.04 124.16L473.04 127.36ZM491.60 144.00L472.40 144.00L472.40 101.76L491.60 101.76L491.60 144.00ZM510.80 144.00L491.60 144.00L491.60 101.76L510.80 101.76L510.80 144.00ZM525.20 147.20L522.00 147.20L522.00 120.96L510.16 120.96L510.16 117.76L525.20 117.76L525.20 147.20ZM518.80 147.20L515.60 147.20L515.60 127.36L510.16 127.36L510.16 124.16L518.80 124.16L518.80 147.20ZM549.84 127.36L534.80 127.36L534.80 98.56L538.00 98.56L538.00 124.16L549.84 124.16L549.84 127.36ZM549.84 120.96L541.20 120.96L541.20 98.56L544.40 98.56L544.40 117.76L549.84 117.76L549.84 120.96ZM569.04 120.96L548.56 120.96L548.56 117.76L569.04 117.76L569.04 120.96ZM569.04 127.36L548.56 127.36L548.56 124.16L569.04 124.16L569.04 127.36ZM588.24 120.96L567.76 120.96L567.76 117.76L588.24 117.76L588.24 120.96ZM588.24 127.36L567.76 127.36L567.76 124.16L588.24 124.16L588.24 127.36ZM606.80 144.00L587.60 144.00L587.60 101.76L606.80 101.76L606.80 144.00ZM626 144.00L606.80 144.00L606.80 101.76L626 101.76L626 144.00ZM634 147.20L630.80 147.20L630.80 117.76L645.84 117.76L645.84 120.96L634 120.96L634 147.20ZM640.40 147.20L637.20 147.20L637.20 124.16L645.84 124.16L645.84 127.36L640.40 127.36L640.40 147.20ZM665.04 120.96L644.56 120.96L644.56 117.76L665.04 117.76L665.04 120.96ZM665.04 127.36L644.56 127.36L644.56 124.16L665.04 124.16L665.04 127.36ZM684.24 120.96L663.76 120.96L663.76 117.76L684.24 117.76L684.24 120.96ZM684.24 127.36L663.76 127.36L663.76 124.16L684.24 124.16L684.24 127.36ZM698.00 127.36L682.96 127.36L682.96 124.16L694.80 124.16L694.80 98.56L698.00 98.56L698.00 127.36ZM691.60 120.96L682.96 120.96L682.96 117.76L688.40 117.76L688.40 98.56L691.60 98.56L691.60 120.96ZM722.00 144.00L702.80 144.00L702.80 101.76L722.00 101.76L722.00 144.00ZM741.20 144.00L722.00 144.00L722.00 101.76L741.20 101.76L741.20 144.00ZM749.20 147.20L746.00 147.20L746.00 117.76L761.04 117.76L761.04 120.96L749.20 120.96L749.20 147.20ZM755.60 147.20L752.40 147.20L752.40 124.16L761.04 124.16L761.04 127.36L755.60 127.36L755.60 147.20ZM780.24 120.96L759.76 120.96L759.76 117.76L780.24 117.76L780.24 120.96ZM780.24 127.36L759.76 127.36L759.76 124.16L780.24 124.16L780.24 127.36ZM799.44 120.96L778.96 120.96L778.96 117.76L799.44 117.76L799.44 120.96ZM799.44 127.36L778.96 127.36L778.96 124.16L799.44 124.16L799.44 127.36ZM818.00 144.00L798.80 144.00L798.80 101.76L818.00 101.76L818.00 144.00ZM837.20 144.00L818.00 144.00L818.00 101.76L837.20 101.76L837.20 144.00ZM851.60 147.20L848.40 147.20L848.40 120.96L836.56 120.96L836.56 117.76L851.60 117.76L851.60 147.20ZM845.20 147.20L842.00 147.20L842.00 127.36L836.56 127.36L836.56 124.16L845.20 124.16L845.20 147.20ZM875.60 144.00L856.40 144.00L856.40 101.76L875.60 101.76L875.60 144.00ZM894.80 144.00L875.60 144.00L875.60 101.76L894.80 101.76L894.80 144.00ZM902.80 147.20L899.60 147.20L899.60 117.76L914.64 117.76L914.64 120.96L902.80 120.96L902.80 147.20ZM909.20 147.20L906.00 147.20L906.00 124.16L914.64 124.16L914.64 127.36L909.20 127.36L909.20 147.20ZM933.84 120.96L913.36 120.96L913.36 117.76L933.84 117.76L933.84 120.96ZM933.84 127.36L913.36 127.36L913.36 124.16L933.84 124.16L933.84 127.36ZM953.04 120.96L932.56 120.96L932.56 117.76L953.04 117.76L953.04 120.96ZM953.04 127.36L932.56 127.36L932.56 124.16L953.04 124.16L953.04 127.36ZM971.60 144.00L952.40 144.00L952.40 101.76L971.60 101.76L971.60 144.00ZM990.80 144.00L971.60 144.00L971.60 101.76L990.80 101.76L990.80 144.00ZM1005.20 147.20L1002.00 147.20L1002.00 120.96L990.16 120.96L990.16 117.76L1005.20 117.76L1005.20 147.20ZM998.80 147.20L995.60 147.20L995.60 127.36L990.16 127.36L990.16 124.16L998.80 124.16L998.80 147.20ZM1029.20 144.00L1010.00 144.00L1010.00 101.76L1029.20 101.76L1029.20 144.00ZM1048.40 144.00L1029.20 144.00L1029.20 101.76L1048.40 101.76L1048.40 144.00ZM1062.80 147.20L1059.60 147.20L1059.60 98.56L1062.80 98.56L1062.80 147.20ZM1056.40 147.20L1053.20 147.20L1053.20 98.56L1056.40 98.56L1056.40 147.20ZM1144.40 144.00L1125.20 144.00L1125.20 101.76L1144.40 101.76L1144.40 144.00ZM1163.60 144.00L1144.40 144.00L1144.40 101.76L1163.60 101.76L1163.60 144.00ZM1178.00 147.20L1174.80 147.20L1174.80 98.56L1178.00 98.56L1178.00 147.20ZM1171.60 147.20L1168.40 147.20L1168.40 98.56L1171.60 98.56L1171.60 147.20ZM1202.64 127.36L1187.60 127.36L1187.60 98.56L1190.80 98.56L1190.80 124.16L1202.64 124.16L1202.64 127.36ZM1202.64 120.96L1194.00 120.96L1194.00 98.56L1197.20 98.56L1197.20 117.76L1202.64 117.76L1202.64 120.96ZM1221.20 144.00L1202.00 144.00L1202.00 101.76L1221.20 101.76L1221.20 144.00ZM1240.40 144.00L1221.20 144.00L1221.20 101.76L1240.40 101.76L1240.40 144.00ZM1254.80 147.20L1251.60 147.20L1251.60 120.96L1239.76 120.96L1239.76 117.76L1254.80 117.76L1254.80 147.20ZM1248.40 147.20L1245.20 147.20L1245.20 127.36L1239.76 127.36L1239.76 124.16L1248.40 124.16L1248.40 147.20ZM1278.80 144.00L1259.60 144.00L1259.60 101.76L1278.80 101.76L1278.80 144.00ZM1298.00 144.00L1278.80 144.00L1278.80 101.76L1298.00 101.76L1298.00 144.00ZM1306.00 147.20L1302.80 147.20L1302.80 117.76L1317.84 117.76L1317.84 120.96L1306.00 120.96L1306.00 147.20ZM1312.40 147.20L1309.20 147.20L1309.20 124.16L1317.84 124.16L1317.84 127.36L1312.40 127.36L1312.40 147.20ZM1331.60 127.36L1316.56 127.36L1316.56 124.16L1328.40 124.16L1328.40 98.56L1331.60 98.56L1331.60 127.36ZM1325.20 120.96L1316.56 120.96L1316.56 117.76L1322.00 117.76L1322.00 98.56L1325.20 98.56L1325.20 120.96Z M69.20 180.80L50 180.80L50 138.56L69.20 138.56L69.20 180.80ZM88.40 180.80L69.20 180.80L69.20 138.56L88.40 138.56L88.40 180.80ZM102.80 184L99.60 184L99.60 135.36L102.80 135.36L102.80 184ZM96.40 184L93.20 184L93.20 135.36L96.40 135.36L96.40 184ZM184.40 180.80L165.20 180.80L165.20 138.56L184.40 138.56L184.40 180.80ZM203.60 180.80L184.40 180.80L184.40 138.56L203.60 138.56L203.60 180.80ZM218.00 184L214.80 184L214.80 135.36L218.00 135.36L218.00 184ZM211.60 184L208.40 184L208.40 135.36L211.60 135.36L211.60 184ZM242.00 180.80L222.80 180.80L222.80 138.56L242.00 138.56L242.00 180.80ZM261.20 180.80L242.00 180.80L242.00 138.56L261.20 138.56L261.20 180.80ZM280.40 180.80L261.20 180.80L261.20 138.56L280.40 138.56L280.40 180.80ZM299.60 180.80L280.40 180.80L280.40 138.56L299.60 138.56L299.60 180.80ZM318.80 180.80L299.60 180.80L299.60 138.56L318.80 138.56L318.80 180.80ZM333.20 184L330.00 184L330.00 157.76L318.16 157.76L318.16 154.56L333.20 154.56L333.20 184ZM326.80 184L323.60 184L323.60 164.16L318.16 164.16L318.16 160.96L326.80 160.96L326.80 184ZM395.60 180.80L376.40 180.80L376.40 138.56L395.60 138.56L395.60 180.80ZM414.80 180.80L395.60 180.80L395.60 138.56L414.80 138.56L414.80 180.80ZM434.00 180.80L414.80 180.80L414.80 138.56L434.00 138.56L434.00 180.80ZM453.20 180.80L434.00 180.80L434.00 138.56L453.20 138.56L453.20 180.80ZM472.40 180.80L453.20 180.80L453.20 138.56L472.40 138.56L472.40 180.80ZM491.60 180.80L472.40 180.80L472.40 138.56L491.60 138.56L491.60 180.80ZM499.60 184L496.40 184L496.40 154.56L511.44 154.56L511.44 157.76L499.60 157.76L499.60 184ZM506.00 184L502.80 184L502.80 160.96L511.44 160.96L511.44 164.16L506.00 164.16L506.00 184ZM525.20 164.16L510.16 164.16L510.16 160.96L522.00 160.96L522.00 135.36L525.20 135.36L525.20 164.16ZM518.80 157.76L510.16 157.76L510.16 154.56L515.60 154.56L515.60 135.36L518.80 135.36L518.80 157.76ZM606.80 180.80L587.60 180.80L587.60 138.56L606.80 138.56L606.80 180.80ZM626 180.80L606.80 180.80L606.80 138.56L626 138.56L626 180.80ZM640.40 184L637.20 184L637.20 135.36L640.40 135.36L640.40 184ZM634 184L630.80 184L630.80 135.36L634 135.36L634 184ZM722.00 180.80L702.80 180.80L702.80 138.56L722.00 138.56L722.00 180.80ZM741.20 180.80L722.00 180.80L722.00 138.56L741.20 138.56L741.20 180.80ZM760.40 180.80L741.20 180.80L741.20 138.56L760.40 138.56L760.40 180.80ZM779.60 180.80L760.40 180.80L760.40 138.56L779.60 138.56L779.60 180.80ZM798.80 180.80L779.60 180.80L779.60 138.56L798.80 138.56L798.80 180.80ZM818.00 180.80L798.80 180.80L798.80 138.56L818.00 138.56L818.00 180.80ZM837.20 180.80L818.00 180.80L818.00 138.56L837.20 138.56L837.20 180.80ZM851.60 184L848.40 184L848.40 135.36L851.60 135.36L851.60 184ZM845.20 184L842.00 184L842.00 135.36L845.20 135.36L845.20 184ZM875.60 180.80L856.40 180.80L856.40 138.56L875.60 138.56L875.60 180.80ZM894.80 180.80L875.60 180.80L875.60 138.56L894.80 138.56L894.80 180.80ZM914.00 180.80L894.80 180.80L894.80 138.56L914.00 138.56L914.00 180.80ZM933.20 180.80L914.00 180.80L914.00 138.56L933.20 138.56L933.20 180.80ZM952.40 180.80L933.20 180.80L933.20 138.56L952.40 138.56L952.40 180.80ZM971.60 180.80L952.40 180.80L952.40 138.56L971.60 138.56L971.60 180.80ZM990.80 180.80L971.60 180.80L971.60 138.56L990.80 138.56L990.80 180.80ZM1005.20 184L1002.00 184L1002.00 135.36L1005.20 135.36L1005.20 184ZM998.80 184L995.60 184L995.60 135.36L998.80 135.36L998.80 184ZM1029.20 180.80L1010.00 180.80L1010.00 138.56L1029.20 138.56L1029.20 180.80ZM1048.40 180.80L1029.20 180.80L1029.20 138.56L1048.40 138.56L1048.40 180.80ZM1062.80 184L1059.60 184L1059.60 135.36L1062.80 135.36L1062.80 184ZM1056.40 184L1053.20 184L1053.20 135.36L1056.40 135.36L1056.40 184ZM1144.40 180.80L1125.20 180.80L1125.20 138.56L1144.40 138.56L1144.40 180.80ZM1163.60 180.80L1144.40 180.80L1144.40 138.56L1163.60 138.56L1163.60 180.80ZM1178.00 184L1174.80 184L1174.80 135.36L1178.00 135.36L1178.00 184ZM1171.60 184L1168.40 184L1168.40 135.36L1171.60 135.36L1171.60 184ZM1221.84 164.16L1206.80 164.16L1206.80 135.36L1210.00 135.36L1210.00 160.96L1221.84 160.96L1221.84 164.16ZM1221.84 157.76L1213.20 157.76L1213.20 135.36L1216.40 135.36L1216.40 154.56L1221.84 154.56L1221.84 157.76ZM1240.40 180.80L1221.20 180.80L1221.20 138.56L1240.40 138.56L1240.40 180.80ZM1259.60 180.80L1240.40 180.80L1240.40 138.56L1259.60 138.56L1259.60 180.80ZM1278.80 180.80L1259.60 180.80L1259.60 138.56L1278.80 138.56L1278.80 180.80ZM1286.80 184L1283.60 184L1283.60 154.56L1298.64 154.56L1298.64 157.76L1286.80 157.76L1286.80 184ZM1293.20 184L1290.00 184L1290.00 160.96L1298.64 160.96L1298.64 164.16L1293.20 164.16L1293.20 184ZM1312.40 164.16L1297.36 164.16L1297.36 160.96L1309.20 160.96L1309.20 135.36L1312.40 135.36L1312.40 164.16ZM1306.00 157.76L1297.36 157.76L1297.36 154.56L1302.80 154.56L1302.80 135.36L1306.00 135.36L1306.00 157.76Z M69.84 200.96L54.80 200.96L54.80 172.16L58 172.16L58 197.76L69.84 197.76L69.84 200.96ZM69.84 194.56L61.20 194.56L61.20 172.16L64.40 172.16L64.40 191.36L69.84 191.36L69.84 194.56ZM88.40 217.60L69.20 217.60L69.20 175.36L88.40 175.36L88.40 217.60ZM107.60 217.60L88.40 217.60L88.40 175.36L107.60 175.36L107.60 217.60ZM122.00 220.80L118.80 220.80L118.80 194.56L106.96 194.56L106.96 191.36L122.00 191.36L122.00 220.80ZM115.60 220.80L112.40 220.80L112.40 200.96L106.96 200.96L106.96 197.76L115.60 197.76L115.60 220.80ZM165.20 217.60L146 217.60L146 175.36L165.20 175.36L165.20 217.60ZM184.40 217.60L165.20 217.60L165.20 175.36L184.40 175.36L184.40 217.60ZM192.40 220.80L189.20 220.80L189.20 191.36L204.24 191.36L204.24 194.56L192.40 194.56L192.40 220.80ZM198.80 220.80L195.60 220.80L195.60 197.76L204.24 197.76L204.24 200.96L198.80 200.96L198.80 220.80ZM218.00 200.96L202.96 200.96L202.96 197.76L214.80 197.76L214.80 172.16L218.00 172.16L218.00 200.96ZM211.60 194.56L202.96 194.56L202.96 191.36L208.40 191.36L208.40 172.16L211.60 172.16L211.60 194.56ZM242.00 217.60L222.80 217.60L222.80 175.36L242.00 175.36L242.00 217.60ZM261.20 217.60L242.00 217.60L242.00 175.36L261.20 175.36L261.20 217.60ZM269.20 220.80L266.00 220.80L266.00 191.36L281.04 191.36L281.04 194.56L269.20 194.56L269.20 220.80ZM275.60 220.80L272.40 220.80L272.40 197.76L281.04 197.76L281.04 200.96L275.60 200.96L275.60 220.80ZM300.24 194.56L279.76 194.56L279.76 191.36L300.24 191.36L300.24 194.56ZM300.24 200.96L279.76 200.96L279.76 197.76L300.24 197.76L300.24 200.96ZM319.44 194.56L298.96 194.56L298.96 191.36L319.44 191.36L319.44 194.56ZM319.44 200.96L298.96 200.96L298.96 197.76L319.44 197.76L319.44 200.96ZM333.20 200.96L318.16 200.96L318.16 197.76L330.00 197.76L330.00 172.16L333.20 172.16L333.20 200.96ZM326.80 194.56L318.16 194.56L318.16 191.36L323.60 191.36L323.60 172.16L326.80 172.16L326.80 194.56ZM395.60 217.60L376.40 217.60L376.40 175.36L395.60 175.36L395.60 217.60ZM414.80 217.60L395.60 217.60L395.60 175.36L414.80 175.36L414.80 217.60ZM422.80 220.80L419.60 220.80L419.60 191.36L434.64 191.36L434.64 194.56L422.80 194.56L422.80 220.80ZM429.20 220.80L426.00 220.80L426.00 197.76L434.64 197.76L434.64 200.96L429.20 200.96L429.20 220.80ZM453.84 194.56L433.36 194.56L433.36 191.36L453.84 191.36L453.84 194.56ZM453.84 200.96L433.36 200.96L433.36 197.76L453.84 197.76L453.84 200.96ZM473.04 194.56L452.56 194.56L452.56 191.36L473.04 191.36L473.04 194.56ZM473.04 200.96L452.56 200.96L452.56 197.76L473.04 197.76L473.04 200.96ZM491.60 217.60L472.40 217.60L472.40 175.36L491.60 175.36L491.60 217.60ZM510.80 217.60L491.60 217.60L491.60 175.36L510.80 175.36L510.80 217.60ZM525.20 220.80L522.00 220.80L522.00 194.56L510.16 194.56L510.16 191.36L525.20 191.36L525.20 220.80ZM518.80 220.80L515.60 220.80L515.60 200.96L510.16 200.96L510.16 197.76L518.80 197.76L518.80 220.80ZM606.80 217.60L587.60 217.60L587.60 175.36L606.80 175.36L606.80 217.60ZM626 217.60L606.80 217.60L606.80 175.36L626 175.36L626 217.60ZM640.40 220.80L637.20 220.80L637.20 172.16L640.40 172.16L640.40 220.80ZM634 220.80L630.80 220.80L630.80 172.16L634 172.16L634 220.80ZM722.00 217.60L702.80 217.60L702.80 175.36L722.00 175.36L722.00 217.60ZM741.20 217.60L722.00 217.60L722.00 175.36L741.20 175.36L741.20 217.60ZM749.20 220.80L746.00 220.80L746.00 191.36L761.04 191.36L761.04 194.56L749.20 194.56L749.20 220.80ZM755.60 220.80L752.40 220.80L752.40 197.76L761.04 197.76L761.04 200.96L755.60 200.96L755.60 220.80ZM780.24 194.56L759.76 194.56L759.76 191.36L780.24 191.36L780.24 194.56ZM780.24 200.96L759.76 200.96L759.76 197.76L780.24 197.76L780.24 200.96ZM799.44 194.56L778.96 194.56L778.96 191.36L799.44 191.36L799.44 194.56ZM799.44 200.96L778.96 200.96L778.96 197.76L799.44 197.76L799.44 200.96ZM818.00 217.60L798.80 217.60L798.80 175.36L818.00 175.36L818.00 217.60ZM837.20 217.60L818.00 217.60L818.00 175.36L837.20 175.36L837.20 217.60ZM851.60 220.80L848.40 220.80L848.40 172.16L851.60 172.16L851.60 220.80ZM845.20 220.80L842.00 220.80L842.00 172.16L845.20 172.16L845.20 220.80ZM875.60 217.60L856.40 217.60L856.40 175.36L875.60 175.36L875.60 217.60ZM894.80 217.60L875.60 217.60L875.60 175.36L894.80 175.36L894.80 217.60ZM902.80 220.80L899.60 220.80L899.60 191.36L914.64 191.36L914.64 194.56L902.80 194.56L902.80 220.80ZM909.20 220.80L906.00 220.80L906.00 197.76L914.64 197.76L914.64 200.96L909.20 200.96L909.20 220.80ZM933.84 194.56L913.36 194.56L913.36 191.36L933.84 191.36L933.84 194.56ZM933.84 200.96L913.36 200.96L913.36 197.76L933.84 197.76L933.84 200.96ZM953.04 194.56L932.56 194.56L932.56 191.36L953.04 191.36L953.04 194.56ZM953.04 200.96L932.56 200.96L932.56 197.76L953.04 197.76L953.04 200.96ZM971.60 217.60L952.40 217.60L952.40 175.36L971.60 175.36L971.60 217.60ZM990.80 217.60L971.60 217.60L971.60 175.36L990.80 175.36L990.80 217.60ZM1005.20 220.80L1002.00 220.80L1002.00 172.16L1005.20 172.16L1005.20 220.80ZM998.80 220.80L995.60 220.80L995.60 172.16L998.80 172.16L998.80 220.80ZM1029.20 217.60L1010.00 217.60L1010.00 175.36L1029.20 175.36L1029.20 217.60ZM1048.40 217.60L1029.20 217.60L1029.20 175.36L1048.40 175.36L1048.40 217.60ZM1062.80 220.80L1059.60 220.80L1059.60 172.16L1062.80 172.16L1062.80 220.80ZM1056.40 220.80L1053.20 220.80L1053.20 172.16L1056.40 172.16L1056.40 220.80ZM1144.40 217.60L1125.20 217.60L1125.20 175.36L1144.40 175.36L1144.40 217.60ZM1163.60 217.60L1144.40 217.60L1144.40 175.36L1163.60 175.36L1163.60 217.60ZM1178.00 220.80L1174.80 220.80L1174.80 172.16L1178.00 172.16L1178.00 220.80ZM1171.60 220.80L1168.40 220.80L1168.40 172.16L1171.60 172.16L1171.60 220.80ZM1221.20 217.60L1202.00 217.60L1202.00 175.36L1221.20 175.36L1221.20 217.60ZM1240.40 217.60L1221.20 217.60L1221.20 175.36L1240.40 175.36L1240.40 217.60ZM1248.40 220.80L1245.20 220.80L1245.20 191.36L1260.24 191.36L1260.24 194.56L1248.40 194.56L1248.40 220.80ZM1254.80 220.80L1251.60 220.80L1251.60 197.76L1260.24 197.76L1260.24 200.96L1254.80 200.96L1254.80 220.80ZM1278.80 217.60L1259.60 217.60L1259.60 175.36L1278.80 175.36L1278.80 217.60ZM1298.00 217.60L1278.80 217.60L1278.80 175.36L1298.00 175.36L1298.00 217.60ZM1312.40 220.80L1309.20 220.80L1309.20 194.56L1297.36 194.56L1297.36 191.36L1312.40 191.36L1312.40 220.80ZM1306.00 220.80L1302.80 220.80L1302.80 200.96L1297.36 200.96L1297.36 197.76L1306.00 197.76L1306.00 220.80Z M89.04 237.76L74 237.76L74 208.96L77.20 208.96L77.20 234.56L89.04 234.56L89.04 237.76ZM89.04 231.36L80.40 231.36L80.40 208.96L83.60 208.96L83.60 228.16L89.04 228.16L89.04 231.36ZM107.60 254.40L88.40 254.40L88.40 212.16L107.60 212.16L107.60 254.40ZM126.80 254.40L107.60 254.40L107.60 212.16L126.80 212.16L126.80 254.40ZM146 254.40L126.80 254.40L126.80 212.16L146 212.16L146 254.40ZM165.20 254.40L146 254.40L146 212.16L165.20 212.16L165.20 254.40ZM173.20 257.60L170 257.60L170 228.16L185.04 228.16L185.04 231.36L173.20 231.36L173.20 257.60ZM179.60 257.60L176.40 257.60L176.40 234.56L185.04 234.56L185.04 237.76L179.60 237.76L179.60 257.60ZM198.80 237.76L183.76 237.76L183.76 234.56L195.60 234.56L195.60 208.96L198.80 208.96L198.80 237.76ZM192.40 231.36L183.76 231.36L183.76 228.16L189.20 228.16L189.20 208.96L192.40 208.96L192.40 231.36ZM242.00 254.40L222.80 254.40L222.80 212.16L242.00 212.16L242.00 254.40ZM261.20 254.40L242.00 254.40L242.00 212.16L261.20 212.16L261.20 254.40ZM280.40 254.40L261.20 254.40L261.20 212.16L280.40 212.16L280.40 254.40ZM299.60 254.40L280.40 254.40L280.40 212.16L299.60 212.16L299.60 254.40ZM318.80 254.40L299.60 254.40L299.60 212.16L318.80 212.16L318.80 254.40ZM338.00 254.40L318.80 254.40L318.80 212.16L338.00 212.16L338.00 254.40ZM357.20 254.40L338.00 254.40L338.00 212.16L357.20 212.16L357.20 254.40ZM371.60 257.60L368.40 257.60L368.40 231.36L356.56 231.36L356.56 228.16L371.60 228.16L371.60 257.60ZM365.20 257.60L362.00 257.60L362.00 237.76L356.56 237.76L356.56 234.56L365.20 234.56L365.20 257.60ZM395.60 254.40L376.40 254.40L376.40 212.16L395.60 212.16L395.60 254.40ZM414.80 254.40L395.60 254.40L395.60 212.16L414.80 212.16L414.80 254.40ZM429.20 257.60L426.00 257.60L426.00 208.96L429.20 208.96L429.20 257.60ZM422.80 257.60L419.60 257.60L419.60 208.96L422.80 208.96L422.80 257.60ZM491.60 254.40L472.40 254.40L472.40 212.16L491.60 212.16L491.60 254.40ZM510.80 254.40L491.60 254.40L491.60 212.16L510.80 212.16L510.80 254.40ZM525.20 257.60L522.00 257.60L522.00 208.96L525.20 208.96L525.20 257.60ZM518.80 257.60L515.60 257.60L515.60 208.96L518.80 208.96L518.80 257.60ZM606.80 254.40L587.60 254.40L587.60 212.16L606.80 212.16L606.80 254.40ZM626 254.40L606.80 254.40L606.80 212.16L626 212.16L626 254.40ZM640.40 257.60L637.20 257.60L637.20 208.96L640.40 208.96L640.40 257.60ZM634 257.60L630.80 257.60L630.80 208.96L634 208.96L634 257.60ZM722.00 254.40L702.80 254.40L702.80 212.16L722.00 212.16L722.00 254.40ZM741.20 254.40L722.00 254.40L722.00 212.16L741.20 212.16L741.20 254.40ZM755.60 257.60L752.40 257.60L752.40 208.96L755.60 208.96L755.60 257.60ZM749.20 257.60L746.00 257.60L746.00 208.96L749.20 208.96L749.20 257.60ZM818.00 254.40L798.80 254.40L798.80 212.16L818.00 212.16L818.00 254.40ZM837.20 254.40L818.00 254.40L818.00 212.16L837.20 212.16L837.20 254.40ZM851.60 257.60L848.40 257.60L848.40 208.96L851.60 208.96L851.60 257.60ZM845.20 257.60L842.00 257.60L842.00 208.96L845.20 208.96L845.20 257.60ZM875.60 254.40L856.40 254.40L856.40 212.16L875.60 212.16L875.60 254.40ZM894.80 254.40L875.60 254.40L875.60 212.16L894.80 212.16L894.80 254.40ZM909.20 257.60L906.00 257.60L906.00 208.96L909.20 208.96L909.20 257.60ZM902.80 257.60L899.60 257.60L899.60 208.96L902.80 208.96L902.80 257.60ZM971.60 254.40L952.40 254.40L952.40 212.16L971.60 212.16L971.60 254.40ZM990.80 254.40L971.60 254.40L971.60 212.16L990.80 212.16L990.80 254.40ZM1005.20 257.60L1002.00 257.60L1002.00 208.96L1005.20 208.96L1005.20 257.60ZM998.80 257.60L995.60 257.60L995.60 208.96L998.80 208.96L998.80 257.60ZM1029.84 237.76L1014.80 237.76L1014.80 208.96L1018.00 208.96L1018.00 234.56L1029.84 234.56L1029.84 237.76ZM1029.84 231.36L1021.20 231.36L1021.20 208.96L1024.40 208.96L1024.40 228.16L1029.84 228.16L1029.84 231.36ZM1048.40 254.40L1029.20 254.40L1029.20 212.16L1048.40 212.16L1048.40 254.40ZM1067.60 254.40L1048.40 254.40L1048.40 212.16L1067.60 212.16L1067.60 254.40ZM1086.80 254.40L1067.60 254.40L1067.60 212.16L1086.80 212.16L1086.80 254.40ZM1106.00 254.40L1086.80 254.40L1086.80 212.16L1106.00 212.16L1106.00 254.40ZM1125.20 254.40L1106.00 254.40L1106.00 212.16L1125.20 212.16L1125.20 254.40ZM1144.40 254.40L1125.20 254.40L1125.20 212.16L1144.40 212.16L1144.40 254.40ZM1152.40 257.60L1149.20 257.60L1149.20 228.16L1164.24 228.16L1164.24 231.36L1152.40 231.36L1152.40 257.60ZM1158.80 257.60L1155.60 257.60L1155.60 234.56L1164.24 234.56L1164.24 237.76L1158.80 237.76L1158.80 257.60ZM1178.00 237.76L1162.96 237.76L1162.96 234.56L1174.80 234.56L1174.80 208.96L1178.00 208.96L1178.00 237.76ZM1171.60 231.36L1162.96 231.36L1162.96 228.16L1168.40 228.16L1168.40 208.96L1171.60 208.96L1171.60 231.36ZM1202.00 254.40L1182.80 254.40L1182.80 212.16L1202.00 212.16L1202.00 254.40ZM1221.20 254.40L1202.00 254.40L1202.00 212.16L1221.20 212.16L1221.20 254.40ZM1229.20 257.60L1226.00 257.60L1226.00 228.16L1241.04 228.16L1241.04 231.36L1229.20 231.36L1229.20 257.60ZM1235.60 257.60L1232.40 257.60L1232.40 234.56L1241.04 234.56L1241.04 237.76L1235.60 237.76L1235.60 257.60ZM1254.80 237.76L1239.76 237.76L1239.76 234.56L1251.60 234.56L1251.60 208.96L1254.80 208.96L1254.80 237.76ZM1248.40 231.36L1239.76 231.36L1239.76 228.16L1245.20 228.16L1245.20 208.96L1248.40 208.96L1248.40 231.36ZM1298.00 254.40L1278.80 254.40L1278.80 212.16L1298.00 212.16L1298.00 254.40ZM1317.20 254.40L1298.00 254.40L1298.00 212.16L1317.20 212.16L1317.20 254.40ZM1331.60 257.60L1328.40 257.60L1328.40 231.36L1316.56 231.36L1316.56 228.16L1331.60 228.16L1331.60 257.60ZM1325.20 257.60L1322.00 257.60L1322.00 237.76L1316.56 237.76L1316.56 234.56L1325.20 234.56L1325.20 257.60Z M108.24 274.56L93.20 274.56L93.20 245.76L96.40 245.76L96.40 271.36L108.24 271.36L108.24 274.56ZM108.24 268.16L99.60 268.16L99.60 245.76L102.80 245.76L102.80 264.96L108.24 264.96L108.24 268.16ZM127.44 268.16L106.96 268.16L106.96 264.96L127.44 264.96L127.44 268.16ZM127.44 274.56L106.96 274.56L106.96 271.36L127.44 271.36L127.44 274.56ZM146.64 268.16L126.16 268.16L126.16 264.96L146.64 264.96L146.64 268.16ZM146.64 274.56L126.16 274.56L126.16 271.36L146.64 271.36L146.64 274.56ZM165.84 268.16L145.36 268.16L145.36 264.96L165.84 264.96L165.84 268.16ZM165.84 274.56L145.36 274.56L145.36 271.36L165.84 271.36L165.84 274.56ZM179.60 274.56L164.56 274.56L164.56 271.36L176.40 271.36L176.40 245.76L179.60 245.76L179.60 274.56ZM173.20 268.16L164.56 268.16L164.56 264.96L170 264.96L170 245.76L173.20 245.76L173.20 268.16ZM242.64 274.56L227.60 274.56L227.60 245.76L230.80 245.76L230.80 271.36L242.64 271.36L242.64 274.56ZM242.64 268.16L234.00 268.16L234.00 245.76L237.20 245.76L237.20 264.96L242.64 264.96L242.64 268.16ZM261.84 268.16L241.36 268.16L241.36 264.96L261.84 264.96L261.84 268.16ZM261.84 274.56L241.36 274.56L241.36 271.36L261.84 271.36L261.84 274.56ZM281.04 268.16L260.56 268.16L260.56 264.96L281.04 264.96L281.04 268.16ZM281.04 274.56L260.56 274.56L260.56 271.36L281.04 271.36L281.04 274.56ZM300.24 268.16L279.76 268.16L279.76 264.96L300.24 264.96L300.24 268.16ZM300.24 274.56L279.76 274.56L279.76 271.36L300.24 271.36L300.24 274.56ZM319.44 268.16L298.96 268.16L298.96 264.96L319.44 264.96L319.44 268.16ZM319.44 274.56L298.96 274.56L298.96 271.36L319.44 271.36L319.44 274.56ZM338.64 268.16L318.16 268.16L318.16 264.96L338.64 264.96L338.64 268.16ZM338.64 274.56L318.16 274.56L318.16 271.36L338.64 271.36L338.64 274.56ZM357.84 268.16L337.36 268.16L337.36 264.96L357.84 264.96L357.84 268.16ZM357.84 274.56L337.36 274.56L337.36 271.36L357.84 271.36L357.84 274.56ZM371.60 274.56L356.56 274.56L356.56 271.36L368.40 271.36L368.40 245.76L371.60 245.76L371.60 274.56ZM365.20 268.16L356.56 268.16L356.56 264.96L362.00 264.96L362.00 245.76L365.20 245.76L365.20 268.16ZM396.24 274.56L381.20 274.56L381.20 245.76L384.40 245.76L384.40 271.36L396.24 271.36L396.24 274.56ZM396.24 268.16L387.60 268.16L387.60 245.76L390.80 245.76L390.80 264.96L396.24 264.96L396.24 268.16ZM415.44 268.16L394.96 268.16L394.96 264.96L415.44 264.96L415.44 268.16ZM415.44 274.56L394.96 274.56L394.96 271.36L415.44 271.36L415.44 274.56ZM429.20 274.56L414.16 274.56L414.16 271.36L426.00 271.36L426.00 245.76L429.20 245.76L429.20 274.56ZM422.80 268.16L414.16 268.16L414.16 264.96L419.60 264.96L419.60 245.76L422.80 245.76L422.80 268.16ZM492.24 274.56L477.20 274.56L477.20 245.76L480.40 245.76L480.40 271.36L492.24 271.36L492.24 274.56ZM492.24 268.16L483.60 268.16L483.60 245.76L486.80 245.76L486.80 264.96L492.24 264.96L492.24 268.16ZM511.44 268.16L490.96 268.16L490.96 264.96L511.44 264.96L511.44 268.16ZM511.44 274.56L490.96 274.56L490.96 271.36L511.44 271.36L511.44 274.56ZM525.20 274.56L510.16 274.56L510.16 271.36L522.00 271.36L522.00 245.76L525.20 245.76L525.20 274.56ZM518.80 268.16L510.16 268.16L510.16 264.96L515.60 264.96L515.60 245.76L518.80 245.76L518.80 268.16ZM607.44 274.56L592.40 274.56L592.40 245.76L595.60 245.76L595.60 271.36L607.44 271.36L607.44 274.56ZM607.44 268.16L598.80 268.16L598.80 245.76L602.00 245.76L602.00 264.96L607.44 264.96L607.44 268.16ZM626.64 268.16L606.16 268.16L606.16 264.96L626.64 264.96L626.64 268.16ZM626.64 274.56L606.16 274.56L606.16 271.36L626.64 271.36L626.64 274.56ZM640.40 274.56L625.36 274.56L625.36 271.36L637.20 271.36L637.20 245.76L640.40 245.76L640.40 274.56ZM634 268.16L625.36 268.16L625.36 264.96L630.80 264.96L630.80 245.76L634 245.76L634 268.16ZM722.64 274.56L707.60 274.56L707.60 245.76L710.80 245.76L710.80 271.36L722.64 271.36L722.64 274.56ZM722.64 268.16L714.00 268.16L714.00 245.76L717.20 245.76L717.20 264.96L722.64 264.96L722.64 268.16ZM741.84 268.16L721.36 268.16L721.36 264.96L741.84 264.96L741.84 268.16ZM741.84 274.56L721.36 274.56L721.36 271.36L741.84 271.36L741.84 274.56ZM755.60 274.56L740.56 274.56L740.56 271.36L752.40 271.36L752.40 245.76L755.60 245.76L755.60 274.56ZM749.20 268.16L740.56 268.16L740.56 264.96L746.00 264.96L746.00 245.76L749.20 245.76L749.20 268.16ZM818.64 274.56L803.60 274.56L803.60 245.76L806.80 245.76L806.80 271.36L818.64 271.36L818.64 274.56ZM818.64 268.16L810.00 268.16L810.00 245.76L813.20 245.76L813.20 264.96L818.64 264.96L818.64 268.16ZM837.84 268.16L817.36 268.16L817.36 264.96L837.84 264.96L837.84 268.16ZM837.84 274.56L817.36 274.56L817.36 271.36L837.84 271.36L837.84 274.56ZM851.60 274.56L836.56 274.56L836.56 271.36L848.40 271.36L848.40 245.76L851.60 245.76L851.60 274.56ZM845.20 268.16L836.56 268.16L836.56 264.96L842.00 264.96L842.00 245.76L845.20 245.76L845.20 268.16ZM876.24 274.56L861.20 274.56L861.20 245.76L864.40 245.76L864.40 271.36L876.24 271.36L876.24 274.56ZM876.24 268.16L867.60 268.16L867.60 245.76L870.80 245.76L870.80 264.96L876.24 264.96L876.24 268.16ZM895.44 268.16L874.96 268.16L874.96 264.96L895.44 264.96L895.44 268.16ZM895.44 274.56L874.96 274.56L874.96 271.36L895.44 271.36L895.44 274.56ZM909.20 274.56L894.16 274.56L894.16 271.36L906.00 271.36L906.00 245.76L909.20 245.76L909.20 274.56ZM902.80 268.16L894.16 268.16L894.16 264.96L899.60 264.96L899.60 245.76L902.80 245.76L902.80 268.16ZM972.24 274.56L957.20 274.56L957.20 245.76L960.40 245.76L960.40 271.36L972.24 271.36L972.24 274.56ZM972.24 268.16L963.60 268.16L963.60 245.76L966.80 245.76L966.80 264.96L972.24 264.96L972.24 268.16ZM991.44 268.16L970.96 268.16L970.96 264.96L991.44 264.96L991.44 268.16ZM991.44 274.56L970.96 274.56L970.96 271.36L991.44 271.36L991.44 274.56ZM1005.20 274.56L990.16 274.56L990.16 271.36L1002.00 271.36L1002.00 245.76L1005.20 245.76L1005.20 274.56ZM998.80 268.16L990.16 268.16L990.16 264.96L995.60 264.96L995.60 245.76L998.80 245.76L998.80 268.16ZM1049.04 274.56L1034.00 274.56L1034.00 245.76L1037.20 245.76L1037.20 271.36L1049.04 271.36L1049.04 274.56ZM1049.04 268.16L1040.40 268.16L1040.40 245.76L1043.60 245.76L1043.60 264.96L1049.04 264.96L1049.04 268.16ZM1068.24 268.16L1047.76 268.16L1047.76 264.96L1068.24 264.96L1068.24 268.16ZM1068.24 274.56L1047.76 274.56L1047.76 271.36L1068.24 271.36L1068.24 274.56ZM1087.44 268.16L1066.96 268.16L1066.96 264.96L1087.44 264.96L1087.44 268.16ZM1087.44 274.56L1066.96 274.56L1066.96 271.36L1087.44 271.36L1087.44 274.56ZM1106.64 268.16L1086.16 268.16L1086.16 264.96L1106.64 264.96L1106.64 268.16ZM1106.64 274.56L1086.16 274.56L1086.16 271.36L1106.64 271.36L1106.64 274.56ZM1125.84 268.16L1105.36 268.16L1105.36 264.96L1125.84 264.96L1125.84 268.16ZM1125.84 274.56L1105.36 274.56L1105.36 271.36L1125.84 271.36L1125.84 274.56ZM1145.04 268.16L1124.56 268.16L1124.56 264.96L1145.04 264.96L1145.04 268.16ZM1145.04 274.56L1124.56 274.56L1124.56 271.36L1145.04 271.36L1145.04 274.56ZM1158.80 274.56L1143.76 274.56L1143.76 271.36L1155.60 271.36L1155.60 245.76L1158.80 245.76L1158.80 274.56ZM1152.40 268.16L1143.76 268.16L1143.76 264.96L1149.20 264.96L1149.20 245.76L1152.40 245.76L1152.40 268.16ZM1202.64 274.56L1187.60 274.56L1187.60 245.76L1190.80 245.76L1190.80 271.36L1202.64 271.36L1202.64 274.56ZM1202.64 268.16L1194.00 268.16L1194.00 245.76L1197.20 245.76L1197.20 264.96L1202.64 264.96L1202.64 268.16ZM1221.84 268.16L1201.36 268.16L1201.36 264.96L1221.84 264.96L1221.84 268.16ZM1221.84 274.56L1201.36 274.56L1201.36 271.36L1221.84 271.36L1221.84 274.56ZM1235.60 274.56L1220.56 274.56L1220.56 271.36L1232.40 271.36L1232.40 245.76L1235.60 245.76L1235.60 274.56ZM1229.20 268.16L1220.56 268.16L1220.56 264.96L1226.00 264.96L1226.00 245.76L1229.20 245.76L1229.20 268.16ZM1298.64 274.56L1283.60 274.56L1283.60 245.76L1286.80 245.76L1286.80 271.36L1298.64 271.36L1298.64 274.56ZM1298.64 268.16L1290.00 268.16L1290.00 245.76L1293.20 245.76L1293.20 264.96L1298.64 264.96L1298.64 268.16ZM1317.84 268.16L1297.36 268.16L1297.36 264.96L1317.84 264.96L1317.84 268.16ZM1317.84 274.56L1297.36 274.56L1297.36 271.36L1317.84 271.36L1317.84 274.56ZM1331.60 274.56L1316.56 274.56L1316.56 271.36L1328.40 271.36L1328.40 245.76L1331.60 245.76L1331.60 274.56ZM1325.20 268.16L1316.56 268.16L1316.56 264.96L1322.00 264.96L1322.00 245.76L1325.20 245.76L1325.20 268.16Z" fill="#00997A"/>
</svg>